{"title":"The Last Godfather, L'ultimo Padrino 2008 2DVDrip Italian Klam","uid":6425338,"size":2522622625,"categoryP":"video","categoryS":"movies","magnet":"?xt=urn:btih:665db543b29d8ea28e1cd5f01a7b0d13bbc6539d&amp;dn=The+Last+Godfather%2C+L%5C%27ultimo+Padrino+2008+2DVDrip+Italian+Klam&amp;tr=udp%3A%2F%2Ftracker.openbittorrent.com%3A80&amp;tr=udp%3A%2F%2Fopen.demonii.com%3A1337&amp;tr=udp%3A%2F%2Ftracker.coppersurfer.tk%3A6969&amp;tr=udp%3A%2F%2Fexodus.desync.com%3A6969","seeders":2,"leechers":0,"uploader":"Klambake","files":-1,"time":1306443065,"description":"With: Michele Placido, Gaetano Amato and Francesco Benigno\n\nSiciliÃƒÂ« in de jaren '90. Maffiabaas Salvatore 'Toto' Riina is gearresteerd. Iedereen in ItaliÃƒÂ« vraagt zich af wie de nieuwe leider van de maffia zal worden. Het antwoord doet de Italiaanse justitie op haar grondvesten schudden. Bernardo Provenzano is namelijk sinds 1963 niet meer in het openbaar gezien. Na dertig jaar is Provenzano uit de schaduw gestapt om de macht te grijpen. Maar de maffia die hij erft is ernstig verzwakt. De nieuwe peetvader werkt dan ook aan een strenge regie om de Cosa Nostra langzaam weer op te bouwen. Ondertussen probeert een task force Provenzano te traceren. Wat volgt is een klopjacht op de maffiabaas die net zo ongrijpbaar en onzichtbaar is als een geest...\n\nSicily in the 90s. Mafia boss Salvatore &quot;Toto&quot; Riina was arrested. Everyone in Italy wonders who the new leader of the mafia will be...\n\nGeneral:\n\nComplete name                    : The Last Godfather\\L'ultimo Padrino Part01.avi\nFormat                           : AVI\nFormat/Info                      : Audio Video Interleave\nFile size                        : 1.18 GiB\nDuration                         : 1h 32mn\nOverall bit rate                 : 1 821 Kbps\n\nVideo:\n\nFormat                           : MPEG-4 Visual\nFormat profile                   : Simple@L3\nFormat settings, BVOP            : No\nFormat settings, QPel            : No\nFormat settings, GMC             : No warppoints\nFormat settings, Matrix          : Default (H.263)\nCodec ID                         : XVID\nCodec ID/Hint                    : XviD\nDuration                         : 1h 32mn\nBit rate                         : 1 587 Kbps\nWidth                            : 652 pixels\nHeight                           : 352 pixels\nDisplay aspect ratio             : 1.852\nFrame rate                       : 25.000 fps\nColor space                      : YUV\nChroma subsampling               : 4:2:0\nBit depth                        : 8 bits\nScan type                        : Progressive\nBits/(Pixel*Frame)               : 0.277\nStream size                      : 1.02 GiB (87%)\nWriting library                  : XviD 1.1.2 (UTC 2006-11-01)\n\nAudio:\n\nFormat                           : AC-3\nFormat/Info                      : Audio Coding 3\nMode extension                   : CM (complete main)\nCodec ID                         : 2000\nDuration                         : 1h 32mn\nBit rate mode                    : Constant\nBit rate                         : 224 Kbps\nChannel(s)                       : 2 channels\nChannel positions                : Front: L R\nSampling rate                    : 48.0 KHz\nBit depth                        : 16 bits\nStream size                      : 148 MiB (12%)\nAlignment                        : Aligned on interleaves\nInterleave, duration             : 32 ms (0.80 video frame)\n\n\n\n","torrent":{"xt":"urn:btih:665db543b29d8ea28e1cd5f01a7b0d13bbc6539d","amp;dn":"The+Last+Godfather%2C+L%5C%27ultimo+Padrino+2008+2DVDrip+Italian+Klam","amp;tr":["udp%3A%2F%2Ftracker.openbittorrent.com%3A80","udp%3A%2F%2Fopen.demonii.com%3A1337","udp%3A%2F%2Ftracker.coppersurfer.tk%3A6969","udp%3A%2F%2Fexodus.desync.com%3A6969"],"infoHash":"665db543b29d8ea28e1cd5f01a7b0d13bbc6539d","infoHashBuffer":{"type":"Buffer","data":[102,93,181,67,178,157,142,162,142,28,213,240,26,123,13,19,187,198,83,157]},"announce":[],"urlList":[]}}